<?xml version="1.0" standalone="no"?>
<!DOCTYPE svg PUBLIC "-//W3C//DTD SVG 20010904//EN"
 "http://www.w3.org/TR/2001/REC-SVG-20010904/DTD/svg10.dtd">
<svg version="1.0" xmlns="http://www.w3.org/2000/svg"
 width="310.000000pt" height="310.000000pt" viewBox="0 0 310.000000 310.000000"
 preserveAspectRatio="xMidYMid meet">
<metadata>
Created by potrace 1.11, written by Peter Selinger 2001-2013
</metadata>
<g transform="translate(0.000000,310.000000) scale(0.100000,-0.100000)"
fill="#000000" stroke="none">
<path d="M1404 2919 c-17 -5 -37 -16 -44 -24 -11 -13 -10 -18 6 -30 48 -36
244 -13 244 29 0 30 -132 47 -206 25z"/>
<path d="M1880 2852 c-33 -27 -21 -48 46 -82 41 -20 64 -25 136 -25 70 0 91 3
105 18 14 13 15 21 7 35 -37 59 -242 97 -294 54z"/>
<path d="M1113 2803 c-77 -31 -129 -80 -167 -158 -31 -64 -68 -193 -60 -207 3
-4 -3 -11 -13 -14 -94 -30 -207 -124 -241 -201 -9 -21 -17 -64 -17 -95 -2 -54
-4 -60 -51 -110 -73 -78 -164 -221 -164 -259 0 -6 -21 -30 -46 -52 -115 -101
-138 -275 -51 -374 57 -64 142 -81 225 -43 l42 19 63 -28 c66 -30 215 -69 280
-73 35 -2 43 -8 75 -56 46 -70 110 -117 196 -143 86 -27 181 -22 260 14 l53
24 35 -31 c102 -90 128 -112 178 -146 30 -20 69 -44 86 -53 18 -9 43 -36 57
-59 80 -134 262 -180 402 -99 47 27 104 95 123 148 9 26 12 60 7 108 -3 39 -6
77 -7 85 0 8 7 42 17 75 12 41 19 105 21 205 l4 145 49 32 c51 33 86 73 116
133 24 47 28 157 9 214 -15 43 -15 45 16 100 30 53 64 155 55 164 -8 8 15 42
29 42 7 0 23 11 35 24 49 52 16 158 -72 229 -72 59 -133 81 -211 78 -21 0 -69
10 -106 23 -37 14 -103 32 -146 41 -51 10 -83 22 -89 32 -22 37 -81 87 -129
109 -72 33 -128 43 -215 40 -58 -2 -82 2 -101 15 -53 35 -171 89 -238 108
-104 29 -229 26 -309 -6z m453 -135 l35 -21 -24 -26 c-32 -35 -47 -64 -47 -95
0 -18 -6 -26 -17 -27 -10 0 -25 -2 -33 -4 -98 -19 -147 -32 -233 -59 l-101
-33 -41 18 c-23 10 -64 20 -91 22 -49 3 -49 4 -46 36 4 49 44 127 62 121 8 -3
53 -5 100 -4 72 0 95 4 148 29 62 28 112 73 112 101 0 10 15 8 71 -12 38 -14
86 -35 105 -46z m88 -315 c70 -37 140 -51 237 -48 l96 3 60 -92 c34 -50 73
-112 88 -139 l27 -47 -43 -19 c-67 -30 -125 -85 -156 -149 -23 -47 -28 -70
-27 -132 0 -79 15 -125 61 -187 l23 -32 -67 -31 c-37 -18 -121 -54 -185 -81
-118 -48 -118 -48 -118 -24 0 45 -39 130 -84 180 -97 111 -259 152 -403 101
l-41 -14 -30 66 c-38 83 -70 164 -87 219 l-13 43 49 30 c126 77 190 200 165
317 l-7 30 88 25 c79 23 195 52 248 61 12 2 33 -10 55 -31 19 -18 48 -40 64
-49z m581 62 c104 -34 122 -45 122 -73 0 -66 67 -151 160 -204 47 -26 53 -34
53 -62 0 -39 -27 -133 -40 -141 -5 -3 -20 4 -32 16 -38 36 -139 78 -203 85
-33 4 -60 7 -61 8 -27 54 -117 205 -146 243 l-39 54 35 41 c20 23 36 45 36 50
0 10 57 2 115 -17z m-1548 -435 c14 -11 44 -25 67 -31 37 -11 64 -12 150 -6
28 2 30 -2 56 -78 15 -44 46 -119 69 -167 l41 -87 -41 -42 c-62 -63 -93 -138
-93 -226 l-1 -73 -35 6 c-94 15 -240 64 -269 90 -2 1 6 16 18 32 45 64 57 181
26 254 -27 65 -103 118 -168 118 -14 0 -14 3 0 33 33 66 133 197 151 197 2 0
15 -9 29 -20z m1575 -576 c39 -2 73 -5 76 -8 16 -17 -4 -260 -24 -298 -3 -3
-29 8 -59 27 -60 35 -133 50 -200 39 -100 -16 -202 -103 -225 -191 -22 -90
-17 -88 -102 -30 -42 29 -100 73 -128 99 l-51 46 35 47 c20 25 43 70 51 99
l15 52 108 43 c59 23 152 64 207 90 l100 47 64 -29 c47 -22 81 -31 133 -33z"/>
<path d="M1478 2175 c-81 -29 -118 -71 -123 -138 -7 -102 91 -186 222 -193 72
-3 113 8 161 43 135 101 32 286 -166 297 -32 2 -73 -2 -94 -9z"/>
<path d="M725 2725 c-56 -24 -107 -77 -99 -100 16 -40 165 9 208 68 38 52 -23
70 -109 32z"/>
<path d="M2424 2645 c-24 -63 115 -180 191 -161 36 9 32 44 -10 93 -55 65
-167 106 -181 68z"/>
<path d="M397 2416 c-91 -33 -187 -142 -187 -214 0 -37 17 -52 59 -52 97 0
241 134 241 225 0 51 -43 66 -113 41z"/>
<path d="M2877 2049 c-17 -23 -13 -68 10 -114 50 -99 171 -150 189 -79 28 110
-142 275 -199 193z"/>
<path d="M76 1880 c-89 -78 -102 -220 -23 -258 68 -33 168 80 169 189 0 96
-75 131 -146 69z"/>
<path d="M2864 1571 c-34 -20 -63 -80 -68 -140 -8 -84 40 -184 105 -220 99
-56 191 13 195 147 6 163 -122 280 -232 213z"/>
<path d="M283 1068 c-91 -65 -95 -227 -7 -294 113 -86 249 60 197 212 -31 91
-123 130 -190 82z"/>
<path d="M2630 947 c-84 -41 -116 -165 -67 -258 58 -108 182 -107 238 3 40 78
15 202 -48 243 -33 22 -91 28 -123 12z"/>
<path d="M915 741 c-104 -26 -165 -104 -165 -211 0 -88 62 -172 145 -197 45
-14 125 -8 163 11 35 18 89 78 104 115 27 70 2 176 -54 227 -51 47 -131 70
-193 55z"/>
<path d="M1642 494 c-122 -62 -121 -244 1 -303 71 -34 141 -23 200 31 74 69
62 197 -25 261 -38 28 -131 34 -176 11z"/>
</g>
</svg>
