<?xml version="1.0" encoding="utf-8"?>
<!-- Generator: Adobe Illustrator 18.0.0, SVG Export Plug-In . SVG Version: 6.00 Build 0)  -->
<!DOCTYPE svg PUBLIC "-//W3C//DTD SVG 1.1//EN" "http://www.w3.org/Graphics/SVG/1.1/DTD/svg11.dtd">
<svg version="1.1" id="Camada_1" xmlns="http://www.w3.org/2000/svg" xmlns:xlink="http://www.w3.org/1999/xlink" x="0px" y="0px"
	 viewBox="0 0 59.8 59.8" enable-background="new 0 0 59.8 59.8" xml:space="preserve">
<circle fill="#0F3F41" cx="29.9" cy="29.9" r="29.9"/>
<circle fill="#0E4D33" cx="29.9" cy="29.9" r="29"/>
<path fill-rule="evenodd" clip-rule="evenodd" fill="#F7B70D" d="M24.1,40.8c0,1,0.8,1.8,1.8,1.8c0.5,0,0.9-0.2,1.2-0.5l0,0L38,31.2
	l0,0c0.3-0.3,0.6-0.8,0.6-1.3c0,0,0,0,0,0c0,0,0,0,0,0c0-0.5-0.2-1-0.6-1.3l0,0L27.1,17.8l0,0c-0.3-0.3-0.8-0.5-1.3-0.5
	c-1,0-1.8,0.8-1.8,1.8c0,0.5,0.2,0.9,0.5,1.3l0,0l9.6,9.6l-9.5,9.5C24.3,39.7,24.1,40.2,24.1,40.8z"/>
</svg>
