<?xml version="1.0" encoding="utf-8"?>
<!-- Generator: Adobe Illustrator 18.0.0, SVG Export Plug-In . SVG Version: 6.00 Build 0)  -->
<!DOCTYPE svg PUBLIC "-//W3C//DTD SVG 1.1//EN" "http://www.w3.org/Graphics/SVG/1.1/DTD/svg11.dtd">
<svg version="1.1" id="Camada_1" xmlns="http://www.w3.org/2000/svg" xmlns:xlink="http://www.w3.org/1999/xlink" x="0px" y="0px"
	 viewBox="0 0 11 16" enable-background="new 0 0 11 16" xml:space="preserve">
<path fill-rule="evenodd" clip-rule="evenodd" fill="#178838" d="M8.9,0H2.1C0.9,0,0,0.9,0,2.1v11.9C0,15.1,0.9,16,2.1,16h6.8
	c1.2,0,2.1-0.9,2.1-2.1V2.1C11,0.9,10.1,0,8.9,0z M5.5,15c-0.4,0-0.8-0.3-0.8-0.8c0-0.4,0.4-0.8,0.8-0.8s0.8,0.3,0.8,0.8
	C6.3,14.6,5.9,15,5.5,15z M9,11c0,0.6-0.4,1-1,1H3c-0.6,0-1-0.4-1-1V3c0-0.6,0.4-1,1-1h5c0.6,0,1,0.4,1,1V11z"/>
</svg>
