<?xml version="1.0" encoding="utf-8"?>
<!-- Generator: Adobe Illustrator 18.0.0, SVG Export Plug-In . SVG Version: 6.00 Build 0)  -->
<!DOCTYPE svg PUBLIC "-//W3C//DTD SVG 1.1//EN" "http://www.w3.org/Graphics/SVG/1.1/DTD/svg11.dtd">
<svg version="1.1" id="Camada_1" xmlns="http://www.w3.org/2000/svg" xmlns:xlink="http://www.w3.org/1999/xlink" x="0px" y="0px"
	 viewBox="0 0 16 16" enable-background="new 0 0 16 16" xml:space="preserve">
<path fill-rule="evenodd" clip-rule="evenodd" fill="#0C8C38" d="M15.9,8.3c-0.2,0.2-0.5,0.2-0.6,0l-0.6-0.6v7.4
	c0,0.5-0.4,0.9-0.9,0.9H2.2c-0.5,0-0.9-0.4-0.9-0.9V7.7L0.8,8.3c-0.2,0.2-0.5,0.2-0.6,0C0,8.1,0,7.8,0.1,7.6l7.5-7.4
	c0.6-0.7,1,0.6,0.8,0l7.5,7.4C16,7.8,16,8.1,15.9,8.3z M13.8,6.8L8,1.1L2.2,6.8v8.3h11.6V6.8z M6.7,8.4h2.7c0.5,0,0.9,0.4,0.9,0.9
	v5.4H9.3V9.3H6.7v5.4H5.8V9.3C5.8,8.8,6.2,8.4,6.7,8.4z"/>
</svg>
