<?xml version="1.0" encoding="utf-8"?>
<!-- Generator: Adobe Illustrator 18.0.0, SVG Export Plug-In . SVG Version: 6.00 Build 0)  -->
<!DOCTYPE svg PUBLIC "-//W3C//DTD SVG 1.1//EN" "http://www.w3.org/Graphics/SVG/1.1/DTD/svg11.dtd">
<svg version="1.1" id="Camada_1" xmlns="http://www.w3.org/2000/svg" xmlns:xlink="http://www.w3.org/1999/xlink" x="0px" y="0px"
	 viewBox="0 0 51 46" enable-background="new 0 0 51 46" xml:space="preserve">
<path fill-rule="evenodd" clip-rule="evenodd" fill="#199A97" d="M5,0h41c2.8,0,5,2.2,5,5v36c0,2.8-2.2,5-5,5H5c-2.8,0-5-2.2-5-5V5
	C0,2.2,2.2,0,5,0z"/>
<polygon fill-rule="evenodd" clip-rule="evenodd" fill="#FFFFFF" points="29,17.3 29,12.3 16.3,12.3 16.3,34.3 35,34.3 35,17.3 "/>
<path fill-rule="evenodd" clip-rule="evenodd" fill="#FCF218" d="M20.4,20.3h5.7c0.2,0,0.4,0.2,0.4,0.4c0,0.2-0.2,0.4-0.4,0.4h-5.7
	c-0.2,0-0.4-0.2-0.4-0.4C20,20.5,20.2,20.3,20.4,20.3z"/>
<path fill-rule="evenodd" clip-rule="evenodd" fill="#FCF218" d="M20.4,22.8h10.2c0.2,0,0.4,0.2,0.4,0.4c0,0.2-0.2,0.4-0.4,0.4H20.4
	c-0.2,0-0.4-0.2-0.4-0.4C20,23,20.2,22.8,20.4,22.8z"/>
<path fill-rule="evenodd" clip-rule="evenodd" fill="#FCF218" d="M20.4,25.4h10.2c0.2,0,0.4,0.2,0.4,0.4c0,0.2-0.2,0.4-0.4,0.4H20.4
	c-0.2,0-0.4-0.2-0.4-0.4C20,25.5,20.2,25.4,20.4,25.4z"/>
<path fill-rule="evenodd" clip-rule="evenodd" fill="#FCF218" d="M24.9,30.4h5.7c0.2,0,0.4,0.2,0.4,0.4s-0.2,0.4-0.4,0.4h-5.7
	c-0.2,0-0.4-0.2-0.4-0.4S24.7,30.4,24.9,30.4z"/>
</svg>
