<?xml version="1.0" encoding="utf-8"?>
<!-- Generator: Adobe Illustrator 18.0.0, SVG Export Plug-In . SVG Version: 6.00 Build 0)  -->
<!DOCTYPE svg PUBLIC "-//W3C//DTD SVG 1.1//EN" "http://www.w3.org/Graphics/SVG/1.1/DTD/svg11.dtd">
<svg version="1.1" id="Camada_1" xmlns="http://www.w3.org/2000/svg" xmlns:xlink="http://www.w3.org/1999/xlink" x="0px" y="0px"
	 viewBox="0 0 16 12" enable-background="new 0 0 16 12" xml:space="preserve">
<path fill-rule="evenodd" clip-rule="evenodd" fill="#178838" d="M14,0H2C0.9,0,0,0.9,0,2v8c0,1.1,0.9,2,2,2h12c1.1,0,2-0.9,2-2V2
	C16,0.9,15.1,0,14,0z M14,9c0,0.6-0.4,1-1,1H3c-0.6,0-1-0.4-1-1V3c0-0.6,0.4-1,1-1h10c0.6,0,1,0.4,1,1V9z"/>
<path fill-rule="evenodd" clip-rule="evenodd" fill="#178838" d="M3.5,4.5L5,6L3.5,7.5l1,1L6,7l2,1.5L10,7l1.5,1.5l1-1L11,6l1.5-1.5
	l-1-1L8,7L4.5,3.5L3.5,4.5z"/>
</svg>
