<?xml version="1.0" encoding="utf-8"?>
<!-- Generator: Adobe Illustrator 18.0.0, SVG Export Plug-In . SVG Version: 6.00 Build 0)  -->
<!DOCTYPE svg PUBLIC "-//W3C//DTD SVG 1.1//EN" "http://www.w3.org/Graphics/SVG/1.1/DTD/svg11.dtd">
<svg version="1.1" id="Camada_1" xmlns="http://www.w3.org/2000/svg" xmlns:xlink="http://www.w3.org/1999/xlink" x="0px" y="0px"
	 viewBox="0 0 36.3 27.8" enable-background="new 0 0 36.3 27.8" xml:space="preserve">
<path fill-rule="evenodd" clip-rule="evenodd" fill="#229EA2" d="M6.5,0L3.8,0.1c-1.5,0-2,1.3-2.7,2.8c0,0-1.2,5.1-1.2,9.9
	c0.1,5.1,1.5,9.8,1.5,9.8C2,24,2.7,25.2,4.2,25.2l2.7-0.1c0.7,0,1.5-0.6,1.3-1.4L7.5,19c-0.2-0.8-0.6-1.3-1.4-1.3l0,0l0,0l-1.6,0
	C4.3,16,4,14.2,4,12.3C4,10.6,4.1,9,4.3,7.5l1.7,0c0.7,0,1.2-0.6,1.3-1.4l0.6-4.8C7.9,0.6,7.3,0,6.5,0"/>
<path fill-rule="evenodd" clip-rule="evenodd" fill="none" stroke="#229EA2" stroke-miterlimit="10" d="M4.8,24.7
	c0,0,4.9,5.2,12.9,0.5c6.8-4,18.1,1.5,18.1,1.5"/>
</svg>
