<?xml version="1.0" encoding="utf-8"?>
<!-- Generator: Adobe Illustrator 18.0.0, SVG Export Plug-In . SVG Version: 6.00 Build 0)  -->
<!DOCTYPE svg PUBLIC "-//W3C//DTD SVG 1.1//EN" "http://www.w3.org/Graphics/SVG/1.1/DTD/svg11.dtd">
<svg version="1.1" id="Camada_1" xmlns="http://www.w3.org/2000/svg" xmlns:xlink="http://www.w3.org/1999/xlink" x="0px" y="0px"
	 viewBox="0 0 489.1 383.3" enable-background="new 0 0 489.1 383.3" xml:space="preserve">
<g>
	<path fill="#3483B7" d="M178,355.7v21.2h-5l0.2-2.4c-0.6,0.9-1.4,1.6-2.4,2s-2.4,0.6-4.2,0.6c-3.3,0-5.5-0.5-6.6-1.6
		c-1.1-1-1.7-3.1-1.7-6.1c0-2.9,0.6-4.9,1.7-6c1.1-1.1,3.2-1.6,6.3-1.6c1.8,0,3.3,0.2,4.2,0.5c1,0.3,1.7,0.9,2.2,1.8l0.1-8.5H178z
		 M168,364.8c-1.9,0-3.1,0.3-3.6,0.8c-0.5,0.6-0.8,1.8-0.8,3.7c0,2.1,0.3,3.5,0.8,4.1c0.6,0.6,1.8,0.9,3.8,0.9c2,0,3.2-0.3,3.8-0.9
		c0.6-0.6,0.9-2,0.9-4.2c0-1.8-0.3-3-0.9-3.6C171.3,365,170,364.8,168,364.8z"/>
	<path fill="#3483B7" d="M196.6,372.2h5.1v0.3v0.2c0,1.7-0.7,2.8-2.1,3.5c-1.4,0.7-3.8,1-7.1,1c-4.2,0-7-0.5-8.3-1.5s-2-3-2-6.1
		c0-3,0.6-5,1.9-6.1c1.3-1,3.9-1.6,7.7-1.6c4,0,6.6,0.5,7.9,1.4c1.3,0.9,1.9,2.8,1.9,5.6v1.2h-14.3v0.6c0,1.5,0.3,2.5,0.9,3
		c0.6,0.5,1.9,0.7,3.9,0.7c1.9,0,3.1-0.1,3.6-0.4C196.3,373.8,196.6,373.1,196.6,372.2z M187.4,367.9h9.2v-0.6
		c0-1.2-0.3-1.9-0.9-2.3c-0.6-0.3-1.8-0.5-3.8-0.5c-1.9,0-3.2,0.2-3.7,0.6C187.7,365.5,187.4,366.5,187.4,367.9z"/>
	<path fill="#3483B7" d="M217.2,362.1h5.1l-0.2,2.2c0.8-0.9,1.6-1.5,2.6-1.9s2.4-0.5,4.3-0.5c3.1,0,5.2,0.5,6.4,1.6s1.8,2.9,1.8,5.6
		c0,3.1-0.6,5.2-1.7,6.3c-1.1,1.1-3.3,1.7-6.4,1.7c-1.9,0-3.4-0.2-4.3-0.5c-0.9-0.3-1.7-1-2.3-1.8l-0.1,8.5h-5.2V362.1z
		 M227.1,364.7c-1.9,0-3.1,0.3-3.7,0.9c-0.6,0.6-0.9,1.9-0.9,3.8c0,2,0.3,3.3,1,3.9c0.6,0.6,2,0.9,4.1,0.9c1.8,0,3-0.3,3.6-0.9
		c0.6-0.6,0.9-1.8,0.9-3.7c0-2.1-0.3-3.5-0.9-4C230.6,365,229.2,364.7,227.1,364.7z"/>
	<path fill="#3483B7" d="M241.6,362.1h5.1l-0.3,2.1c0.7-0.9,1.5-1.5,2.4-1.8c0.8-0.3,2-0.5,3.5-0.5c2,0,3.5,0.4,4.3,1.1
		c0.8,0.7,1.3,2,1.3,3.8v1.1H253l0-0.8c0-0.9-0.2-1.6-0.5-1.9c-0.4-0.3-1.1-0.5-2.1-0.5c-1.4,0-2.3,0.3-2.9,0.8
		c-0.6,0.5-0.8,1.4-0.8,2.7v8.7h-5.1V362.1z"/>
	<path fill="#3483B7" d="M269.6,361.9c4.2,0,7,0.4,8.3,1.3c1.3,0.9,1.9,2.8,1.9,5.8c0,3.4-0.6,5.6-1.9,6.6c-1.2,1-3.9,1.5-8,1.5
		c-4.3,0-7-0.5-8.3-1.4c-1.3-1-1.9-3.1-1.9-6.3c0-3,0.6-5,1.9-6C262.9,362.4,265.6,361.9,269.6,361.9z M269.9,364.7
		c-2.1,0-3.4,0.3-4,0.8c-0.6,0.5-0.8,1.8-0.8,3.8c0,2.2,0.3,3.6,0.8,4.2c0.5,0.6,1.9,0.8,4,0.8c2.1,0,3.4-0.3,3.9-0.9s0.8-2,0.8-4.3
		c0-1.9-0.3-3.1-0.8-3.7C273.2,365,271.9,364.7,269.9,364.7z"/>
	<path fill="#3483B7" d="M289.1,362.1v15.5c0,1.7-0.4,2.8-1.3,3.5c-0.8,0.6-2.3,1-4.5,1c-0.5,0-1.1,0-1.7-0.1v-2.5h0.5
		c0.7,0,1.2-0.1,1.5-0.4c0.3-0.3,0.4-0.8,0.4-1.7v-15.2H289.1z M289.1,355.7v3H284v-3H289.1z"/>
	<path fill="#3483B7" d="M307.8,372.2h5.1v0.3v0.2c0,1.7-0.7,2.8-2.1,3.5s-3.8,1-7.1,1c-4.2,0-7-0.5-8.3-1.5c-1.3-1-2-3-2-6.1
		c0-3,0.6-5,1.9-6.1c1.3-1,3.9-1.6,7.7-1.6c4,0,6.6,0.5,7.9,1.4c1.3,0.9,1.9,2.8,1.9,5.6v1.2h-14.3v0.6c0,1.5,0.3,2.5,0.9,3
		c0.6,0.5,1.9,0.7,3.9,0.7c1.9,0,3.1-0.1,3.6-0.4C307.5,373.8,307.8,373.1,307.8,372.2z M298.6,367.9h9.2v-0.6
		c0-1.2-0.3-1.9-0.9-2.3c-0.6-0.3-1.8-0.5-3.8-0.5c-1.9,0-3.2,0.2-3.7,0.6C298.8,365.5,298.6,366.5,298.6,367.9z"/>
	<path fill="#3483B7" d="M330.8,362.1v2.7h-8.1v7.4c0,0.9,0.1,1.4,0.4,1.7c0.3,0.3,0.8,0.4,1.7,0.4c1,0,1.7-0.2,2-0.5
		c0.3-0.3,0.5-1,0.5-2v-0.6h4.3v0.9c0,1.9-0.5,3.3-1.5,4c-1,0.7-2.8,1.1-5.4,1.1c-2.8,0-4.7-0.3-5.7-0.9c-1-0.6-1.5-1.8-1.5-3.5
		v-7.9h-2.8v-2.7h2.8v-3.3h5.1v3.3H330.8z"/>
	<path fill="#3483B7" d="M343.4,361.9c4.2,0,7,0.4,8.3,1.3c1.3,0.9,1.9,2.8,1.9,5.8c0,3.4-0.6,5.6-1.9,6.6c-1.2,1-3.9,1.5-8,1.5
		c-4.3,0-7-0.5-8.3-1.4c-1.3-1-1.9-3.1-1.9-6.3c0-3,0.6-5,1.9-6C336.7,362.4,339.4,361.9,343.4,361.9z M343.6,364.7
		c-2.1,0-3.4,0.3-4,0.8c-0.6,0.5-0.8,1.8-0.8,3.8c0,2.2,0.3,3.6,0.8,4.2c0.5,0.6,1.9,0.8,4,0.8c2.1,0,3.4-0.3,3.9-0.9s0.8-2,0.8-4.3
		c0-1.9-0.3-3.1-0.8-3.7C347,365,345.7,364.7,343.6,364.7z"/>
	<path fill="#3483B7" d="M375.5,366.2h-4.9l0-0.3c-0.1-0.7-0.4-1.1-0.9-1.2c-0.5-0.2-1.6-0.3-3.3-0.3c-1.8,0-3,0.1-3.5,0.3
		c-0.5,0.2-0.8,0.7-0.8,1.5c0,0.8,0.3,1.3,0.8,1.5s2.1,0.3,4.7,0.3c3.6,0,5.9,0.3,7,0.9s1.7,1.7,1.7,3.5c0,1.8-0.7,3-2.1,3.7
		c-1.4,0.7-4,1-7.8,1c-3.7,0-6.2-0.3-7.5-0.9c-1.3-0.6-2-1.8-2-3.5v-0.4h5.2v0.5c0,0.8,0.3,1.3,0.8,1.5c0.6,0.2,1.8,0.4,3.6,0.4
		c1.9,0,3.1-0.1,3.8-0.4c0.6-0.3,1-0.8,1-1.6c0-0.7-0.2-1.2-0.6-1.5c-0.4-0.3-1.2-0.4-2.4-0.4c-4.6,0-7.6-0.3-9-0.9
		c-1.4-0.6-2.1-1.7-2.1-3.5c0-1.8,0.6-3,1.9-3.6s3.8-0.9,7.6-0.9c3.5,0,5.9,0.3,7.1,0.9S375.5,364.5,375.5,366.2z"/>
</g>
<path fill="#1B68A4" d="M224.3,84.1C198.7,35.8,146.7-1.3,113.1,13c-34.2,14.5-29.9,83,2.7,132c34.7,52.1,73.5,87.4,106.1,73.6
	C254,205,255.1,142.2,224.3,84.1z M217.1,209.9c-29.1,12.2-64.4-20.5-96.2-68.4C91.1,96.4,86.4,33.8,117,21
	C147,8.4,194.2,42.8,217.7,87.2C246,140.6,245.8,197.9,217.1,209.9z"/>
<path fill="#1B68A4" d="M132,48.8c-54.4,15.5-101.7,58.4-92.8,93.4c9,35.6,80.7,44.2,136.9,22.1c59.9-23.6,103.1-54.2,94.5-88
	C262.1,43,197.4,30.1,132,48.8z M260.8,79.2c7.6,30.2-32.4,57.9-87.5,79.5c-51.8,20.2-117.3,13-125.3-18.7c-7.8-31.2,36-70,86-84.3
	C194.2,38.5,253.4,49.5,260.8,79.2z"/>
<path fill="#178B36" d="M303.9,104.1c0,0,13.5-6.1,22.8,4.1s11.7,18.5,11.7,18.5l6,9.3c1.3,0.6,14.7,9.4,23.3-11.3
	c7.9-19.1,7.4,4.1,4.7,3.8c0.7-1.4-10.3,22.2-25,15.3c-15.4-7.2-15.4-21.2-17.2-23.7c-3.3-4.6-12.8-14.2-15.5-12.8l-10,0.8
	L303.9,104.1z"/>
<ellipse fill="#1B68A4" cx="131.6" cy="162.4" rx="36.7" ry="35.1"/>
<ellipse fill="#1B68A4" cx="214.3" cy="207.4" rx="29.3" ry="28"/>
<ellipse transform="matrix(0.9621 0.2728 -0.2728 0.9621 42.3469 -58.4286)" fill="#1B68A4" cx="231.3" cy="123.1" rx="34.7" ry="32.3"/>
<ellipse fill="#1B68A4" cx="273.1" cy="218.5" rx="14.5" ry="17.9"/>
<ellipse transform="matrix(0.9789 -0.2046 0.2046 0.9789 -25.6828 64.7329)" fill="#1B68A4" cx="300.3" cy="156.6" rx="15.3" ry="20.7"/>
<ellipse transform="matrix(0.7946 -0.6071 0.6071 0.7946 1.4586 204.4075)" fill="#1B68A4" cx="302.9" cy="100" rx="8.1" ry="14.9"/>
<ellipse transform="matrix(0.5782 -0.8159 0.8159 0.5782 55.2013 240.6237)" fill="#1B68A4" cx="260.3" cy="66.9" rx="13.8" ry="22.9"/>
<ellipse transform="matrix(0.5782 -0.8159 0.8159 0.5782 78.7402 225.6688)" fill="#1B68A4" cx="257.6" cy="36.7" rx="6" ry="13.3"/>
<ellipse transform="matrix(0.1528 -0.9883 0.9883 0.1528 43.812 237.6539)" fill="#1B68A4" cx="160.5" cy="93.3" rx="17.4" ry="22.9"/>
<ellipse transform="matrix(-0.4719 -0.8816 0.8816 -0.4719 70.4958 192.631)" fill="#1B68A4" cx="92.9" cy="75.2" rx="23.5" ry="32.4"/>
<ellipse transform="matrix(-0.2148 -0.9767 0.9767 -0.2148 123.7039 145.2308)" fill="#1B68A4" cx="120.2" cy="22.9" rx="11" ry="21.8"/>
<ellipse transform="matrix(0.1528 -0.9883 0.9883 0.1528 113.8407 221.341)" fill="#1B68A4" cx="186" cy="44.3" rx="19.4" ry="30.4"/>
<ellipse transform="matrix(0.1686 -0.9857 0.9857 0.1686 158.4797 213.2738)" fill="#1B68A4" cx="205.7" cy="12.7" rx="6.3" ry="16.5"/>
<ellipse transform="matrix(-3.571995e-002 -0.9994 0.9994 -3.571995e-002 152.1036 155.3268)" fill="#1B68A4" cx="151" cy="4.3" rx="4.3" ry="13.3"/>
<ellipse transform="matrix(-0.4415 -0.8973 0.8973 -0.4415 84.9746 104.3751)" fill="#1B68A4" cx="75" cy="25.7" rx="5" ry="12.4"/>
<ellipse transform="matrix(-0.6588 -0.7523 0.7523 -0.6588 11.6564 136.001)" fill="#1B68A4" cx="36.7" cy="65.4" rx="9.2" ry="19"/>
<ellipse transform="matrix(-0.9126 -0.4089 0.4089 -0.9126 -26.7433 231.5845)" fill="#1B68A4" cx="11.4" cy="118.7" rx="10.2" ry="15.9"/>
<ellipse transform="matrix(-0.8987 -0.4385 0.4385 -0.8987 28.2786 293.8126)" fill="#1B68A4" cx="48.1" cy="143.6" rx="21.8" ry="26.2"/>
<ellipse fill="#1B68A4" cx="97.9" cy="243.9" rx="21.8" ry="21.6"/>
<ellipse fill="#1B68A4" cx="35.4" cy="204.8" rx="14" ry="17.5"/>
<ellipse fill="#1B68A4" cx="175.3" cy="263.5" rx="17.6" ry="17.5"/>
<path fill="#178B36" d="M480,52.1l-22.7-27.5c-9.8-11-25.3-13.3-36.7-3.2l-56.9,48.3c-11,8.1-11.6,22.9-2.2,39l25.5,28.6
	c11.6,9.7,24,11.5,34.3,2.6l57.6-47.5C492.5,84.3,492.1,65.3,480,52.1z M364.1,103.7c-4.1-4.4-6.1-20.2,0.4-28l16.8-16.2l25.8,31.1
	l-32.6,26.5L364.1,103.7z M415.2,139.7c-9,4.5-24-1-27.3-6l-12.3-14.3l33.3-27.4l25.8,31.3L415.2,139.7z M474.2,90.4l-37.6,31.1
	l-52.9-63.9l36.5-31.2c10.7-9.5,26.7-7.7,35.5,2.2l21,24C487.7,64.4,487,82.6,474.2,90.4z"/>
<g>
	<path fill="#D87914" d="M43.9,343.7c0.6-3.1,1.8-6.2,1.8-9.3c0.2-11.7,0.2-23.5,0-35.2c0-3-0.7-6-1.2-9.2c7.8,0,15.9-0.1,24,0.1
		c1.2,0,3,1.7,3.4,3.1c3.1,8.8,6,17.6,9.3,27.5c2.8-8.1,5.3-15.3,7.7-22.5c2.8-8.2,2.8-8.2,11.5-8.2c6,0,11.9,0,17.3,0
		c-0.4,4.7-0.9,9.1-1,13.5c-0.1,10.2-0.2,20.4,0.1,30.6c0.1,3.2,1.5,6.4,2.3,9.6c-8.1,0-16.2,0-24.3,0c0.5-1.7,1.5-3.4,1.5-5.2
		c0.1-11.1,0.1-22.2,0.1-33.3c-3.5,8.1-6.3,16.3-9.1,24.5c-1.5,4.6-2.8,9.3-4.2,13.9c-5,0-10,0-15.1,0c-4.2-12.8-8.4-25.6-12.6-38.5
		c-0.9,9.4-1.1,18.7-0.8,27.9c0.1,3.5,1.1,7.1,1.7,10.6C52.3,343.7,48.1,343.7,43.9,343.7z"/>
	<path fill="#D87914" d="M254.1,343.7c0.5-5.8,1.4-11.5,1.6-17.3c0.3-8.2,0.2-16.5,0-24.7c-0.1-3.7-0.6-7.4-1-11.5
		c0.7,0,1.8-0.2,3-0.2c12.7,0,25.3,0,38,0c10.9,0,15.3,4.3,15.5,15.1c0.1,7.3-0.2,14.5,0.1,21.8c0.4,8.1-2.1,14.2-10.3,16.8
		C285.3,343.7,269.7,343.7,254.1,343.7z M275.9,334.7c4.1,0,7.7,0,11.3,0c2.6,0,3.7-1.6,3.7-4.1c0-9.2,0.1-18.4-0.2-27.6
		c0-1.3-2-3.6-3.3-3.8c-3.6-0.5-7.4-0.2-11.3-0.2c-0.1,0.9-0.2,1.5-0.2,2.2C275.9,312.3,275.9,323.3,275.9,334.7z"/>
	<path fill="#D87914" d="M328.6,343.7c-8.4-2.3-11-8.4-10.8-16.5c0.2-7.5-0.1-15.1,0.1-22.6c0.3-9.9,5-14.5,14.9-14.5
		c9.6-0.1,19.2-0.1,28.9,0c9.6,0.1,14.4,4.7,14.6,14.4c0.2,7.3-0.1,14.5,0.1,21.8c0.3,8-1.7,14.6-10.1,17.5
		C353.7,343.7,341.1,343.7,328.6,343.7z M356,316.9C356,316.9,356.1,316.9,356,316.9c0.1-2.2,0.1-4.5,0.1-6.7
		c0-11.9-0.2-12.1-12.2-11.5c-3.9,0.2-5.9,1.7-5.8,5.8c0.1,6.1-0.1,12.3,0,18.4c0.1,12.7-1.3,12.2,13.3,11.9c3.4-0.1,4.7-1.9,4.7-5
		C356,325.5,356,321.2,356,316.9z"/>
	<path fill="#D87914" d="M188.8,343.7c0.5-4.8,1.4-9.6,1.6-14.4c0.3-9.2,0.2-18.4,0-27.6c-0.1-3.7-0.6-7.4-1-11.6
		c8.5,0,17.5-0.1,26.4,0.1c1,0,2.3,1.8,2.9,3c5.7,11.6,11.3,23.3,16.9,35c0.5,1,0.9,2,1.6,3.4c0-14.1,0-27.7,0-41.3c3.1,0,7,0,10,0
		c-0.2,7.2-0.5,14.2-0.6,21.3c-0.1,10.7-0.1,21.5-0.1,32.2c-8.6,0-17.3,0-25.9,0c-6.8-14-13.6-28.1-20.5-42.1
		c-0.9,12.2-1,24-0.8,35.8c0,2.1,1.3,4.2,2,6.3C197.1,343.7,192.9,343.7,188.8,343.7z"/>
	<path fill="#D87914" d="M136,343.7c-7.9-3.1-10.3-9.2-10-17.3c0.3-8.7,0.2-17.3,0-26c-0.1-3.3-0.6-6.6-1-10.1c7.3,0,14.9,0,22.5,0
		c-2.5,13.1-0.9,26.5-1.1,39.8c0,3,1.4,4.7,4.6,4.7c6,0,12,0,18,0c2.9,0,4.5-1.4,4.5-4.3c0.1-11.5,0.1-22.9,0-34.4
		c0-1.9-0.9-3.8-1.5-5.9c3.9,0,7.7,0,10.7,0c-0.1,12.2-0.6,24.5-0.3,36.8c0.2,8.1-2.6,13.7-10.3,16.6C160,343.7,148,343.7,136,343.7
		z"/>
</g>
</svg>
