<?xml version="1.0" encoding="utf-8"?>
<!-- Generator: Adobe Illustrator 18.0.0, SVG Export Plug-In . SVG Version: 6.00 Build 0)  -->
<!DOCTYPE svg PUBLIC "-//W3C//DTD SVG 1.1//EN" "http://www.w3.org/Graphics/SVG/1.1/DTD/svg11.dtd">
<svg version="1.1" id="Camada_1" xmlns="http://www.w3.org/2000/svg" xmlns:xlink="http://www.w3.org/1999/xlink" x="0px" y="0px"
	 viewBox="0 0 542.2 109.6" enable-background="new 0 0 542.2 109.6" xml:space="preserve">
<g>
	<path fill="#3483B7" d="M344,76v21.2h-5l0.2-2.4c-0.6,0.9-1.4,1.6-2.4,2s-2.4,0.6-4.2,0.6c-3.3,0-5.5-0.5-6.6-1.6
		c-1.1-1-1.7-3.1-1.7-6.1c0-2.9,0.6-4.9,1.7-6c1.1-1.1,3.2-1.6,6.3-1.6c1.8,0,3.3,0.2,4.2,0.5c1,0.3,1.7,0.9,2.2,1.8l0.1-8.5H344z
		 M334,85c-1.9,0-3.1,0.3-3.6,0.8c-0.5,0.6-0.8,1.8-0.8,3.7c0,2.1,0.3,3.5,0.8,4.1c0.6,0.6,1.8,0.9,3.8,0.9c2,0,3.2-0.3,3.8-0.9
		c0.6-0.6,0.9-2,0.9-4.2c0-1.8-0.3-3-0.9-3.6C337.3,85.3,336,85,334,85z"/>
	<path fill="#3483B7" d="M362.6,92.5h5.1v0.3v0.2c0,1.7-0.7,2.8-2.1,3.5c-1.4,0.7-3.8,1-7.1,1c-4.2,0-7-0.5-8.3-1.5s-2-3-2-6.1
		c0-3,0.6-5,1.9-6.1c1.3-1,3.9-1.6,7.7-1.6c4,0,6.6,0.5,7.9,1.4c1.3,0.9,1.9,2.8,1.9,5.6v1.2h-14.3V91c0,1.5,0.3,2.5,0.9,3
		c0.6,0.5,1.9,0.7,3.9,0.7c1.9,0,3.1-0.1,3.6-0.4C362.3,94,362.6,93.4,362.6,92.5z M353.4,88.2h9.2v-0.6c0-1.2-0.3-1.9-0.9-2.3
		c-0.6-0.3-1.8-0.5-3.8-0.5c-1.9,0-3.2,0.2-3.7,0.6C353.7,85.8,353.4,86.7,353.4,88.2z"/>
	<path fill="#3483B7" d="M383.2,82.4h5.1l-0.2,2.2c0.8-0.9,1.6-1.5,2.6-1.9s2.4-0.5,4.3-0.5c3.1,0,5.2,0.5,6.4,1.6s1.8,2.9,1.8,5.6
		c0,3.1-0.6,5.2-1.7,6.3c-1.1,1.1-3.3,1.7-6.4,1.7c-1.9,0-3.4-0.2-4.3-0.5c-0.9-0.3-1.7-1-2.3-1.8l-0.1,8.5h-5.2V82.4z M393.1,85
		c-1.9,0-3.1,0.3-3.7,0.9c-0.6,0.6-0.9,1.9-0.9,3.8c0,2,0.3,3.3,1,3.9c0.6,0.6,2,0.9,4.1,0.9c1.8,0,3-0.3,3.6-0.9
		c0.6-0.6,0.9-1.8,0.9-3.7c0-2.1-0.3-3.5-0.9-4C396.6,85.2,395.2,85,393.1,85z"/>
	<path fill="#3483B7" d="M407.6,82.4h5.1l-0.3,2.1c0.7-0.9,1.5-1.5,2.4-1.8c0.8-0.3,2-0.5,3.5-0.5c2,0,3.5,0.4,4.3,1.1
		s1.3,2,1.3,3.8v1.1H419l0-0.8c0-0.9-0.2-1.6-0.5-1.9c-0.4-0.3-1.1-0.5-2.1-0.5c-1.4,0-2.3,0.3-2.9,0.8c-0.6,0.5-0.8,1.4-0.8,2.7
		v8.7h-5.1V82.4z"/>
	<path fill="#3483B7" d="M435.6,82.2c4.2,0,7,0.4,8.3,1.3c1.3,0.9,1.9,2.8,1.9,5.8c0,3.4-0.6,5.6-1.9,6.6c-1.2,1-3.9,1.5-8,1.5
		c-4.3,0-7-0.5-8.3-1.4c-1.3-1-1.9-3.1-1.9-6.3c0-3,0.6-5,1.9-6C428.9,82.6,431.6,82.2,435.6,82.2z M435.9,85c-2.1,0-3.4,0.3-4,0.8
		c-0.6,0.5-0.8,1.8-0.8,3.8c0,2.2,0.3,3.6,0.8,4.2c0.5,0.6,1.9,0.8,4,0.8c2.1,0,3.4-0.3,3.9-0.9s0.8-2,0.8-4.3
		c0-1.9-0.3-3.1-0.8-3.7C439.2,85.2,437.9,85,435.9,85z"/>
	<path fill="#3483B7" d="M455.1,82.3v15.5c0,1.7-0.4,2.8-1.3,3.5c-0.8,0.6-2.3,1-4.5,1c-0.5,0-1.1,0-1.7-0.1v-2.5h0.5
		c0.7,0,1.2-0.1,1.5-0.4c0.3-0.3,0.4-0.8,0.4-1.7V82.3H455.1z M455.1,76v3H450v-3H455.1z"/>
	<path fill="#3483B7" d="M473.8,92.5h5.1v0.3v0.2c0,1.7-0.7,2.8-2.1,3.5s-3.8,1-7.1,1c-4.2,0-7-0.5-8.3-1.5c-1.3-1-2-3-2-6.1
		c0-3,0.6-5,1.9-6.1c1.3-1,3.9-1.6,7.7-1.6c4,0,6.6,0.5,7.9,1.4c1.3,0.9,1.9,2.8,1.9,5.6v1.2h-14.3V91c0,1.5,0.3,2.5,0.9,3
		c0.6,0.5,1.9,0.7,3.9,0.7c1.9,0,3.1-0.1,3.6-0.4C473.5,94,473.8,93.4,473.8,92.5z M464.6,88.2h9.2v-0.6c0-1.2-0.3-1.9-0.9-2.3
		c-0.6-0.3-1.8-0.5-3.8-0.5c-1.9,0-3.2,0.2-3.7,0.6C464.8,85.8,464.6,86.7,464.6,88.2z"/>
	<path fill="#3483B7" d="M496.8,82.4v2.7h-8.1v7.4c0,0.9,0.1,1.4,0.4,1.7c0.3,0.3,0.8,0.4,1.7,0.4c1,0,1.7-0.2,2-0.5
		c0.3-0.3,0.5-1,0.5-2v-0.6h4.3v0.9c0,1.9-0.5,3.3-1.5,4c-1,0.7-2.8,1.1-5.4,1.1c-2.8,0-4.7-0.3-5.7-0.9c-1-0.6-1.5-1.8-1.5-3.5
		v-7.9h-2.8v-2.7h2.8V79h5.1v3.3H496.8z"/>
	<path fill="#3483B7" d="M509.4,82.2c4.2,0,7,0.4,8.3,1.3c1.3,0.9,1.9,2.8,1.9,5.8c0,3.4-0.6,5.6-1.9,6.6c-1.2,1-3.9,1.5-8,1.5
		c-4.3,0-7-0.5-8.3-1.4c-1.3-1-1.9-3.1-1.9-6.3c0-3,0.6-5,1.9-6C502.7,82.6,505.4,82.2,509.4,82.2z M509.6,85c-2.1,0-3.4,0.3-4,0.8
		c-0.6,0.5-0.8,1.8-0.8,3.8c0,2.2,0.3,3.6,0.8,4.2c0.5,0.6,1.9,0.8,4,0.8c2.1,0,3.4-0.3,3.9-0.9s0.8-2,0.8-4.3
		c0-1.9-0.3-3.1-0.8-3.7C513,85.2,511.7,85,509.6,85z"/>
	<path fill="#3483B7" d="M541.5,86.4h-4.9l0-0.3c-0.1-0.7-0.4-1.1-0.9-1.2c-0.5-0.2-1.6-0.3-3.3-0.3c-1.8,0-3,0.1-3.5,0.3
		c-0.5,0.2-0.8,0.7-0.8,1.5c0,0.8,0.3,1.3,0.8,1.5s2.1,0.3,4.7,0.3c3.6,0,5.9,0.3,7,0.9s1.7,1.7,1.7,3.5c0,1.8-0.7,3-2.1,3.7
		c-1.4,0.7-4,1-7.8,1c-3.7,0-6.2-0.3-7.5-0.9c-1.3-0.6-2-1.8-2-3.5v-0.4h5.2V93c0,0.8,0.3,1.3,0.8,1.5c0.6,0.2,1.8,0.4,3.6,0.4
		c1.9,0,3.1-0.1,3.8-0.4c0.6-0.3,1-0.8,1-1.6c0-0.7-0.2-1.2-0.6-1.5c-0.4-0.3-1.2-0.4-2.4-0.4c-4.6,0-7.6-0.3-9-0.9
		c-1.4-0.6-2.1-1.7-2.1-3.5c0-1.8,0.6-3,1.9-3.6s3.8-0.9,7.6-0.9c3.5,0,5.9,0.3,7.1,0.9S541.5,84.7,541.5,86.4z"/>
</g>
<path fill="#1B68A4" d="M86.4,32.4C76.5,13.8,56.5-0.5,43.6,5C30.4,10.6,32,37,44.6,55.8C58,75.9,72.9,89.5,85.5,84.2
	C97.8,78.9,98.2,54.8,86.4,32.4z M83.6,80.8c-11.2,4.7-24.8-7.9-37-26.4C35.1,37.1,33.3,13,45,8.1c11.6-4.8,29.7,8.4,38.8,25.5
	C94.7,54.1,94.6,76.2,83.6,80.8z"/>
<path fill="#1B68A4" d="M50.8,18.8c-20.9,6-39.2,22.5-35.8,36c3.5,13.7,31.1,17,52.7,8.5c23.1-9.1,39.7-20.9,36.4-33.9
	C100.9,16.5,76,11.6,50.8,18.8z M100.4,30.5c2.9,11.6-12.5,22.3-33.7,30.6c-19.9,7.8-45.2,5-48.2-7.2c-3-12,13.9-27,33.1-32.5
	C74.8,14.8,97.6,19.1,100.4,30.5z"/>
<path fill="#178B36" d="M117,40.1c0,0,5.2-2.3,8.8,1.6c3.6,3.9,4.5,7.1,4.5,7.1l2.3,3.6c0.5,0.2,5.7,3.6,9-4.4
	c3.1-7.4,2.9,1.6,1.8,1.5c0.3-0.5-4,8.5-9.6,5.9c-5.9-2.8-5.9-8.2-6.6-9.1c-1.3-1.8-4.9-5.5-6-4.9l-3.9,0.3L117,40.1z"/>
<ellipse fill="#1B68A4" cx="50.7" cy="62.5" rx="14.1" ry="13.5"/>
<ellipse fill="#1B68A4" cx="82.5" cy="79.9" rx="11.3" ry="10.8"/>
<ellipse transform="matrix(0.9621 0.2728 -0.2728 0.9621 16.3073 -22.5002)" fill="#1B68A4" cx="89.1" cy="47.4" rx="13.4" ry="12.4"/>
<ellipse fill="#1B68A4" cx="105.2" cy="84.2" rx="5.6" ry="6.9"/>
<ellipse transform="matrix(0.9789 -0.2046 0.2046 0.9789 -9.8901 24.9279)" fill="#1B68A4" cx="115.6" cy="60.3" rx="5.9" ry="8"/>
<ellipse transform="matrix(0.7946 -0.6071 0.6071 0.7946 0.5617 78.7149)" fill="#1B68A4" cx="116.6" cy="38.5" rx="3.1" ry="5.7"/>
<ellipse transform="matrix(0.5782 -0.8159 0.8159 0.5782 21.2573 92.6613)" fill="#1B68A4" cx="100.2" cy="25.8" rx="5.3" ry="8.8"/>
<ellipse transform="matrix(0.5782 -0.8159 0.8159 0.5782 30.3219 86.9024)" fill="#1B68A4" cx="99.2" cy="14.1" rx="2.3" ry="5.1"/>
<ellipse transform="matrix(0.1528 -0.9883 0.9883 0.1528 16.8715 91.5177)" fill="#1B68A4" cx="61.8" cy="35.9" rx="6.7" ry="8.8"/>
<ellipse transform="matrix(-0.4719 -0.8816 0.8816 -0.4719 27.1471 74.1799)" fill="#1B68A4" cx="35.8" cy="29" rx="9" ry="12.5"/>
<ellipse transform="matrix(-0.2148 -0.9767 0.9767 -0.2148 47.6369 55.9266)" fill="#1B68A4" cx="46.3" cy="8.8" rx="4.2" ry="8.4"/>
<ellipse transform="matrix(0.1528 -0.9883 0.9883 0.1528 43.8387 85.2358)" fill="#1B68A4" cx="71.6" cy="17" rx="7.5" ry="11.7"/>
<ellipse transform="matrix(0.1686 -0.9857 0.9857 0.1686 61.0287 82.1292)" fill="#1B68A4" cx="79.2" cy="4.9" rx="2.4" ry="6.3"/>
<ellipse transform="matrix(-3.571995e-002 -0.9994 0.9994 -3.571995e-002 58.5733 59.8145)" fill="#1B68A4" cx="58.1" cy="1.6" rx="1.6" ry="5.1"/>
<ellipse transform="matrix(-0.4415 -0.8973 0.8973 -0.4415 32.7227 40.1936)" fill="#1B68A4" cx="28.9" cy="9.9" rx="1.9" ry="4.8"/>
<ellipse transform="matrix(-0.6588 -0.7523 0.7523 -0.6588 4.4887 52.3724)" fill="#1B68A4" cx="14.1" cy="25.2" rx="3.5" ry="7.3"/>
<ellipse transform="matrix(-0.9126 -0.4089 0.4089 -0.9126 -10.2985 89.1805)" fill="#1B68A4" cx="4.4" cy="45.7" rx="3.9" ry="6.1"/>
<ellipse transform="matrix(-0.8987 -0.4385 0.4385 -0.8987 10.8898 113.1437)" fill="#1B68A4" cx="18.5" cy="55.3" rx="8.4" ry="10.1"/>
<ellipse fill="#1B68A4" cx="37.7" cy="93.9" rx="8.4" ry="8.3"/>
<ellipse fill="#1B68A4" cx="13.6" cy="78.9" rx="5.4" ry="6.7"/>
<ellipse fill="#1B68A4" cx="67.5" cy="101.5" rx="6.8" ry="6.7"/>
<path fill="#178B36" d="M184.8,20.1l-8.7-10.6c-3.8-4.2-9.8-5.1-14.1-1.2L140,26.9c-4.2,3.1-4.5,8.8-0.9,15l9.8,11
	c4.5,3.7,9.2,4.4,13.2,1l22.2-18.3C189.7,32.4,189.5,25.1,184.8,20.1z M140.2,39.9c-1.6-1.7-2.3-7.8,0.1-10.8l6.5-6.2l9.9,12
	l-12.6,10.2L140.2,39.9z M159.9,53.8c-3.5,1.7-9.2-0.4-10.5-2.3l-4.7-5.5l12.8-10.6l9.9,12.1L159.9,53.8z M182.6,34.8l-14.5,12
	l-20.4-24.6l14.1-12c4.1-3.7,10.3-3,13.7,0.8l8.1,9.2C187.8,24.8,187.5,31.8,182.6,34.8z"/>
<g>
	<path fill="#D87914" d="M209.9,64c0.6-3.1,1.8-6.2,1.8-9.3c0.2-11.7,0.2-23.5,0-35.2c0-3-0.7-6-1.2-9.2c7.8,0,15.9-0.1,24,0.1
		c1.2,0,3,1.7,3.4,3.1c3.1,8.8,6,17.6,9.3,27.5c2.8-8.1,5.3-15.3,7.7-22.5c2.8-8.2,2.8-8.2,11.5-8.2c6,0,11.9,0,17.3,0
		c-0.4,4.7-0.9,9.1-1,13.5c-0.1,10.2-0.2,20.4,0.1,30.6c0.1,3.2,1.5,6.4,2.3,9.6c-8.1,0-16.2,0-24.3,0c0.5-1.7,1.5-3.4,1.5-5.2
		c0.1-11.1,0.1-22.2,0.1-33.3c-3.5,8.1-6.3,16.3-9.1,24.5c-1.5,4.6-2.8,9.3-4.2,13.9c-5,0-10,0-15.1,0c-4.2-12.8-8.4-25.6-12.6-38.5
		c-0.9,9.4-1.1,18.7-0.8,27.9c0.1,3.5,1.1,7.1,1.7,10.6C218.3,64,214.1,64,209.9,64z"/>
	<path fill="#D87914" d="M420.1,64c0.5-5.8,1.4-11.5,1.6-17.3c0.3-8.2,0.2-16.5,0-24.7c-0.1-3.7-0.6-7.4-1-11.5c0.7,0,1.8-0.2,3-0.2
		c12.7,0,25.3,0,38,0c10.9,0,15.3,4.3,15.5,15.1c0.1,7.3-0.2,14.5,0.1,21.8c0.4,8.1-2.1,14.2-10.3,16.8C451.3,64,435.7,64,420.1,64z
		 M441.9,55c4.1,0,7.7,0,11.3,0c2.6,0,3.7-1.6,3.7-4.1c0-9.2,0.1-18.4-0.2-27.6c0-1.3-2-3.6-3.3-3.8c-3.6-0.5-7.4-0.2-11.3-0.2
		c-0.1,0.9-0.2,1.5-0.2,2.2C441.9,32.5,441.9,43.5,441.9,55z"/>
	<path fill="#D87914" d="M494.6,64c-8.4-2.3-11-8.4-10.8-16.5c0.2-7.5-0.1-15.1,0.1-22.6c0.3-9.9,5-14.5,14.9-14.5
		c9.6-0.1,19.2-0.1,28.9,0c9.6,0.1,14.4,4.7,14.6,14.4c0.2,7.3-0.1,14.5,0.1,21.8c0.3,8-1.7,14.6-10.1,17.5
		C519.7,64,507.1,64,494.6,64z M522,37.2C522,37.2,522.1,37.2,522,37.2c0.1-2.2,0.1-4.5,0.1-6.7c0-11.9-0.2-12.1-12.2-11.5
		c-3.9,0.2-5.9,1.7-5.8,5.8c0.1,6.1-0.1,12.3,0,18.4c0.1,12.7-1.3,12.2,13.3,11.9c3.4-0.1,4.7-1.9,4.7-5C522,45.8,522,41.5,522,37.2
		z"/>
	<path fill="#D87914" d="M354.8,64c0.5-4.8,1.4-9.6,1.6-14.4c0.3-9.2,0.2-18.4,0-27.6c-0.1-3.7-0.6-7.4-1-11.6
		c8.5,0,17.5-0.1,26.4,0.1c1,0,2.3,1.8,2.9,3c5.7,11.6,11.3,23.3,16.9,35c0.5,1,0.9,2,1.6,3.4c0-14.1,0-27.7,0-41.3c3.1,0,7,0,10,0
		c-0.2,7.2-0.5,14.2-0.6,21.3c-0.1,10.7-0.1,21.5-0.1,32.2c-8.6,0-17.3,0-25.9,0c-6.8-14-13.6-28.1-20.5-42.1
		c-0.9,12.2-1,24-0.8,35.8c0,2.1,1.3,4.2,2,6.3C363.1,64,358.9,64,354.8,64z"/>
	<path fill="#D87914" d="M302,64c-7.9-3.1-10.3-9.2-10-17.3c0.3-8.7,0.2-17.3,0-26c-0.1-3.3-0.6-6.6-1-10.1c7.3,0,14.9,0,22.5,0
		c-2.5,13.1-0.9,26.5-1.1,39.8c0,3,1.4,4.7,4.6,4.7c6,0,12,0,18,0c2.9,0,4.5-1.4,4.5-4.3c0.1-11.5,0.1-22.9,0-34.4
		c0-1.9-0.9-3.8-1.5-5.9c3.9,0,7.7,0,10.7,0c-0.1,12.2-0.6,24.5-0.3,36.8c0.2,8.1-2.6,13.7-10.3,16.6C326,64,314,64,302,64z"/>
</g>
</svg>
